<svg xmlns="http://www.w3.org/2000/svg" viewBox="0 0 1200 694" width="1200" height="694" preserveAspectRatio="xMidYMid meet" style="width: 100%; height: 100%; transform: translate3d(0px, 0px, 0px);"><defs><clipPath id="__lottie_element_2"><rect width="1200" height="694" x="0" y="0"></rect></clipPath><clipPath id="__lottie_element_5"><path d="M0,0 L1200,0 L1200,1080 L0,1080z"></path></clipPath><clipPath id="__lottie_element_33"><path d="M0,0 L1200,0 L1200,1080 L0,1080z"></path></clipPath><clipPath id="__lottie_element_61"><path d="M0,0 L1200,0 L1200,1080 L0,1080z"></path></clipPath><clipPath id="__lottie_element_119"><path d="M0,0 L1200,0 L1200,1080 L0,1080z"></path></clipPath><clipPath id="__lottie_element_120"><path fill="#ffffff" clip-rule="nonzero" d=" M1094.1180419921875,482.3529968261719 C1094.1180419921875,482.3529968261719 908.2360229492188,628.2349853515625 908.2360229492188,628.2349853515625 C908.2360229492188,628.2349853515625 955.2940063476562,681.176025390625 955.2940063476562,681.176025390625 C955.2940063476562,681.176025390625 257.6470031738281,671.7650146484375 257.6470031738281,671.7650146484375 C257.6470031738281,671.7650146484375 322.3529968261719,610.5880126953125 322.3529968261719,610.5880126953125 C322.3529968261719,610.5880126953125 61.17599868774414,497.6470031738281 61.17599868774414,497.6470031738281 C61.17599868774414,497.6470031738281 -89.41200256347656,594.1179809570312 -89.41200256347656,594.1179809570312 C-89.41200256347656,594.1179809570312 -92.94100189208984,884.7059936523438 -92.94100189208984,884.7059936523438 C-92.94100189208984,884.7059936523438 1297.64697265625,865.8820190429688 1297.64697265625,865.8820190429688 C1297.64697265625,865.8820190429688 1300,594.1179809570312 1300,594.1179809570312 C1300,594.1179809570312 1094.1180419921875,482.3529968261719 1094.1180419921875,482.3529968261719" fill-opacity="1"></path></clipPath><clipPath id="__lottie_element_132"><path d="M0,0 L1200,0 L1200,1080 L0,1080z"></path></clipPath><mask id="__lottie_element_147" mask-type="alpha"><g transform="matrix(1,0,0,1,600,540)" opacity="1" style="display: block;"><g opacity="1" transform="matrix(1,0,0,1,-2.5,68.5)"><path fill="rgb(59,255,0)" fill-opacity="1" d=" M374.5,-43 C374.5,-43 374.5,43 374.5,43 C374.5,43 -374.5,43 -374.5,43 C-374.5,43 -374.5,-43 -374.5,-43 C-374.5,-43 374.5,-43 374.5,-43z"></path></g></g></mask><clipPath id="__lottie_element_154"><path d="M0,0 L1200,0 L1200,694 L0,694z"></path></clipPath><clipPath id="__lottie_element_155"><path fill="#ffffff" clip-rule="nonzero" d=" M128,22 C128,22 261,579 261,579 C261,579 341.5,477.5 341.5,477.5 C341.5,477.5 374.5,446 374.5,446 C374.5,446 823,446 823,446 C823,446 968,366 968,366 C968,366 926,30 926,30 C926,30 128,22 128,22" fill-opacity="1"></path></clipPath><clipPath id="__lottie_element_158"><path d="M0,0 L1200,0 L1200,1080 L0,1080z"></path></clipPath><clipPath id="__lottie_element_168"><path d="M0,0 L1200,0 L1200,1080 L0,1080z"></path></clipPath><clipPath id="__lottie_element_178"><path d="M0,0 L1200,0 L1200,1080 L0,1080z"></path></clipPath></defs><g clip-path="url(#__lottie_element_2)"><g clip-path="url(#__lottie_element_154)" transform="matrix(1,0,0,1,0,0)" opacity="1" style="display: block;"><g clip-path="url(#__lottie_element_155)"><g clip-path="url(#__lottie_element_178)" style="display: block;" transform="matrix(0.9520000219345093,0,0,0.9520000219345093,66.70001220703125,-154.280029296875)" opacity="1"><g transform="matrix(1,0,0,1,600,540)" opacity="1" style="display: block;"><g opacity="1" transform="matrix(1,0,0,1,-129,-5.5)"><path stroke-linecap="butt" stroke-linejoin="miter" fill-opacity="0" stroke-miterlimit="4" stroke="rgb(104,104,103)" stroke-opacity="1" stroke-width="2" d=" M3,-100 C3,-100 3,100 3,100 C3,100 -3,100 -3,100 C-3,100 -3,-100 -3,-100 C-3,-100 3,-100 3,-100z"></path></g></g><g transform="matrix(-3.131272792816162,0.25402745604515076,-0.25402745604515076,-3.131272792816162,610.1930541992188,503.62835693359375)" opacity="1" style="display: block;"><g opacity="1" transform="matrix(1,0,0,1,37.8129997253418,36.61600112915039)"><path fill="rgb(255,255,255)" fill-opacity="1" d=" M14.116999626159668,36.145999908447266 C14.116999626159668,36.145999908447266 8.145999908447266,3.4000000953674316 8.145999908447266,3.4000000953674316 C8.145999908447266,3.4000000953674316 5.789999961853027,-2.7709999084472656 5.789999961853027,-2.7709999084472656 C6.468999862670898,-3.0290000438690186 7.093999862670898,-3.4590001106262207 7.59499979019165,-4.052999973297119 C8.829999923706055,-5.514999866485596 8.956999778747559,-7.540999889373779 8.060999870300293,-9.111000061035156 C8.060999870300293,-9.111000061035156 13.907999992370605,-12.446999549865723 13.907999992370605,-12.446999549865723 C13.907999992370605,-12.446999549865723 37.34299850463867,-36.145999908447266 37.34299850463867,-36.145999908447266 C37.34299850463867,-36.145999908447266 11.402000427246094,-15.291999816894531 11.402000427246094,-15.291999816894531 C11.402000427246094,-15.291999816894531 7.0970001220703125,-10.277000427246094 7.0970001220703125,-10.277000427246094 C7.0970001220703125,-10.277000427246094 7.071000099182129,-10.300999641418457 7.071000099182129,-10.300999641418457 C5.199999809265137,-11.880999565124512 2.4040000438690186,-11.645999908447266 0.8230000138282776,-9.774999618530273 C0.6779999732971191,-9.602999687194824 0.5479999780654907,-9.423999786376953 0.4320000112056732,-9.23799991607666 C0.4320000112056732,-9.23799991607666 -5.302000045776367,-12.762999534606934 -5.302000045776367,-12.762999534606934 C-5.302000045776367,-12.762999534606934 -37.34299850463867,-21.93600082397461 -37.34299850463867,-21.93600082397461 C-37.34299850463867,-21.93600082397461 -6.591000080108643,-9.199999809265137 -6.591000080108643,-9.199999809265137 C-6.591000080108643,-9.199999809265137 -0.1289999932050705,-7.831999778747559 -0.1289999932050705,-7.831999778747559 C-0.45399999618530273,-6.2870001792907715 0.05700000002980232,-4.61899995803833 1.347000002861023,-3.5290000438690186 C2.2070000171661377,-2.802000045776367 3.263000011444092,-2.4590001106262207 4.304999828338623,-2.4820001125335693 C4.304999828338623,-2.4820001125335693 4.451000213623047,4.249000072479248 4.451000213623047,4.249000072479248 C4.451000213623047,4.249000072479248 14.116999626159668,36.145999908447266 14.116999626159668,36.145999908447266z"></path><path stroke-linecap="round" stroke-linejoin="round" fill-opacity="0" stroke="rgb(104,104,103)" stroke-opacity="1" stroke-width="0.72" d=" M14.116999626159668,36.145999908447266 C14.116999626159668,36.145999908447266 8.145999908447266,3.4000000953674316 8.145999908447266,3.4000000953674316 C8.145999908447266,3.4000000953674316 5.789999961853027,-2.7709999084472656 5.789999961853027,-2.7709999084472656 C6.468999862670898,-3.0290000438690186 7.093999862670898,-3.4590001106262207 7.59499979019165,-4.052999973297119 C8.829999923706055,-5.514999866485596 8.956999778747559,-7.540999889373779 8.060999870300293,-9.111000061035156 C8.060999870300293,-9.111000061035156 13.907999992370605,-12.446999549865723 13.907999992370605,-12.446999549865723 C13.907999992370605,-12.446999549865723 37.34299850463867,-36.145999908447266 37.34299850463867,-36.145999908447266 C37.34299850463867,-36.145999908447266 11.402000427246094,-15.291999816894531 11.402000427246094,-15.291999816894531 C11.402000427246094,-15.291999816894531 7.0970001220703125,-10.277000427246094 7.0970001220703125,-10.277000427246094 C7.0970001220703125,-10.277000427246094 7.071000099182129,-10.300999641418457 7.071000099182129,-10.300999641418457 C5.199999809265137,-11.880999565124512 2.4040000438690186,-11.645999908447266 0.8230000138282776,-9.774999618530273 C0.6779999732971191,-9.602999687194824 0.5479999780654907,-9.423999786376953 0.4320000112056732,-9.23799991607666 C0.4320000112056732,-9.23799991607666 -5.302000045776367,-12.762999534606934 -5.302000045776367,-12.762999534606934 C-5.302000045776367,-12.762999534606934 -37.34299850463867,-21.93600082397461 -37.34299850463867,-21.93600082397461 C-37.34299850463867,-21.93600082397461 -6.591000080108643,-9.199999809265137 -6.591000080108643,-9.199999809265137 C-6.591000080108643,-9.199999809265137 -0.1289999932050705,-7.831999778747559 -0.1289999932050705,-7.831999778747559 C-0.45399999618530273,-6.2870001792907715 0.05700000002980232,-4.61899995803833 1.347000002861023,-3.5290000438690186 C2.2070000171661377,-2.802000045776367 3.263000011444092,-2.4590001106262207 4.304999828338623,-2.4820001125335693 C4.304999828338623,-2.4820001125335693 4.451000213623047,4.249000072479248 4.451000213623047,4.249000072479248 C4.451000213623047,4.249000072479248 14.116999626159668,36.145999908447266 14.116999626159668,36.145999908447266z"></path></g><g opacity="1" transform="matrix(1,0,0,1,42.02199935913086,29.701000213623047)"><path stroke-linecap="butt" stroke-linejoin="miter" fill-opacity="0" stroke-miterlimit="2.61" stroke="rgb(104,104,103)" stroke-opacity="1" stroke-width="0.72" d=" M1.6100000143051147,1.3609999418258667 C2.3610000610351562,0.47200000286102295 2.25,-0.8579999804496765 1.3609999418258667,-1.6089999675750732 C0.47200000286102295,-2.3610000610351562 -0.8579999804496765,-2.249000072479248 -1.6089999675750732,-1.3600000143051147 C-2.3610000610351562,-0.47099998593330383 -2.249000072479248,0.859000027179718 -1.3600000143051147,1.6100000143051147 C-0.47099998593330383,2.3610000610351562 0.859000027179718,2.25 1.6100000143051147,1.3609999418258667z"></path></g></g></g><g clip-path="url(#__lottie_element_168)" style="display: block;" transform="matrix(0.7111700177192688,0,0,0.7111700177192688,15.697998046875,21.668212890625)" opacity="1"><g transform="matrix(1,0,0,1,600,540)" opacity="1" style="display: block;"><g opacity="1" transform="matrix(1,0,0,1,-129,-5.5)"><path stroke-linecap="butt" stroke-linejoin="miter" fill-opacity="0" stroke-miterlimit="4" stroke="rgb(104,104,103)" stroke-opacity="1" stroke-width="2" d=" M3,-100 C3,-100 3,100 3,100 C3,100 -3,100 -3,100 C-3,100 -3,-100 -3,-100 C-3,-100 3,-100 3,-100z"></path></g></g><g transform="matrix(-3.131272792816162,0.25402745604515076,-0.25402745604515076,-3.131272792816162,610.1930541992188,503.62835693359375)" opacity="1" style="display: block;"><g opacity="1" transform="matrix(1,0,0,1,37.8129997253418,36.61600112915039)"><path fill="rgb(255,255,255)" fill-opacity="1" d=" M14.116999626159668,36.145999908447266 C14.116999626159668,36.145999908447266 8.145999908447266,3.4000000953674316 8.145999908447266,3.4000000953674316 C8.145999908447266,3.4000000953674316 5.789999961853027,-2.7709999084472656 5.789999961853027,-2.7709999084472656 C6.468999862670898,-3.0290000438690186 7.093999862670898,-3.4590001106262207 7.59499979019165,-4.052999973297119 C8.829999923706055,-5.514999866485596 8.956999778747559,-7.540999889373779 8.060999870300293,-9.111000061035156 C8.060999870300293,-9.111000061035156 13.907999992370605,-12.446999549865723 13.907999992370605,-12.446999549865723 C13.907999992370605,-12.446999549865723 37.34299850463867,-36.145999908447266 37.34299850463867,-36.145999908447266 C37.34299850463867,-36.145999908447266 11.402000427246094,-15.291999816894531 11.402000427246094,-15.291999816894531 C11.402000427246094,-15.291999816894531 7.0970001220703125,-10.277000427246094 7.0970001220703125,-10.277000427246094 C7.0970001220703125,-10.277000427246094 7.071000099182129,-10.300999641418457 7.071000099182129,-10.300999641418457 C5.199999809265137,-11.880999565124512 2.4040000438690186,-11.645999908447266 0.8230000138282776,-9.774999618530273 C0.6779999732971191,-9.602999687194824 0.5479999780654907,-9.423999786376953 0.4320000112056732,-9.23799991607666 C0.4320000112056732,-9.23799991607666 -5.302000045776367,-12.762999534606934 -5.302000045776367,-12.762999534606934 C-5.302000045776367,-12.762999534606934 -37.34299850463867,-21.93600082397461 -37.34299850463867,-21.93600082397461 C-37.34299850463867,-21.93600082397461 -6.591000080108643,-9.199999809265137 -6.591000080108643,-9.199999809265137 C-6.591000080108643,-9.199999809265137 -0.1289999932050705,-7.831999778747559 -0.1289999932050705,-7.831999778747559 C-0.45399999618530273,-6.2870001792907715 0.05700000002980232,-4.61899995803833 1.347000002861023,-3.5290000438690186 C2.2070000171661377,-2.802000045776367 3.263000011444092,-2.4590001106262207 4.304999828338623,-2.4820001125335693 C4.304999828338623,-2.4820001125335693 4.451000213623047,4.249000072479248 4.451000213623047,4.249000072479248 C4.451000213623047,4.249000072479248 14.116999626159668,36.145999908447266 14.116999626159668,36.145999908447266z"></path><path stroke-linecap="round" stroke-linejoin="round" fill-opacity="0" stroke="rgb(104,104,103)" stroke-opacity="1" stroke-width="0.72" d=" M14.116999626159668,36.145999908447266 C14.116999626159668,36.145999908447266 8.145999908447266,3.4000000953674316 8.145999908447266,3.4000000953674316 C8.145999908447266,3.4000000953674316 5.789999961853027,-2.7709999084472656 5.789999961853027,-2.7709999084472656 C6.468999862670898,-3.0290000438690186 7.093999862670898,-3.4590001106262207 7.59499979019165,-4.052999973297119 C8.829999923706055,-5.514999866485596 8.956999778747559,-7.540999889373779 8.060999870300293,-9.111000061035156 C8.060999870300293,-9.111000061035156 13.907999992370605,-12.446999549865723 13.907999992370605,-12.446999549865723 C13.907999992370605,-12.446999549865723 37.34299850463867,-36.145999908447266 37.34299850463867,-36.145999908447266 C37.34299850463867,-36.145999908447266 11.402000427246094,-15.291999816894531 11.402000427246094,-15.291999816894531 C11.402000427246094,-15.291999816894531 7.0970001220703125,-10.277000427246094 7.0970001220703125,-10.277000427246094 C7.0970001220703125,-10.277000427246094 7.071000099182129,-10.300999641418457 7.071000099182129,-10.300999641418457 C5.199999809265137,-11.880999565124512 2.4040000438690186,-11.645999908447266 0.8230000138282776,-9.774999618530273 C0.6779999732971191,-9.602999687194824 0.5479999780654907,-9.423999786376953 0.4320000112056732,-9.23799991607666 C0.4320000112056732,-9.23799991607666 -5.302000045776367,-12.762999534606934 -5.302000045776367,-12.762999534606934 C-5.302000045776367,-12.762999534606934 -37.34299850463867,-21.93600082397461 -37.34299850463867,-21.93600082397461 C-37.34299850463867,-21.93600082397461 -6.591000080108643,-9.199999809265137 -6.591000080108643,-9.199999809265137 C-6.591000080108643,-9.199999809265137 -0.1289999932050705,-7.831999778747559 -0.1289999932050705,-7.831999778747559 C-0.45399999618530273,-6.2870001792907715 0.05700000002980232,-4.61899995803833 1.347000002861023,-3.5290000438690186 C2.2070000171661377,-2.802000045776367 3.263000011444092,-2.4590001106262207 4.304999828338623,-2.4820001125335693 C4.304999828338623,-2.4820001125335693 4.451000213623047,4.249000072479248 4.451000213623047,4.249000072479248 C4.451000213623047,4.249000072479248 14.116999626159668,36.145999908447266 14.116999626159668,36.145999908447266z"></path></g><g opacity="1" transform="matrix(1,0,0,1,42.02199935913086,29.701000213623047)"><path stroke-linecap="butt" stroke-linejoin="miter" fill-opacity="0" stroke-miterlimit="2.61" stroke="rgb(104,104,103)" stroke-opacity="1" stroke-width="0.72" d=" M1.6100000143051147,1.3609999418258667 C2.3610000610351562,0.47200000286102295 2.25,-0.8579999804496765 1.3609999418258667,-1.6089999675750732 C0.47200000286102295,-2.3610000610351562 -0.8579999804496765,-2.249000072479248 -1.6089999675750732,-1.3600000143051147 C-2.3610000610351562,-0.47099998593330383 -2.249000072479248,0.859000027179718 -1.3600000143051147,1.6100000143051147 C-0.47099998593330383,2.3610000610351562 0.859000027179718,2.25 1.6100000143051147,1.3609999418258667z"></path></g></g></g><g clip-path="url(#__lottie_element_158)" style="display: block;" transform="matrix(0.5270000100135803,0,0,0.5270000100135803,366.70001220703125,139.41998291015625)" opacity="1"><g transform="matrix(1,0,0,1,600,540)" opacity="1" style="display: block;"><g opacity="1" transform="matrix(1,0,0,1,-129,-5.5)"><path stroke-linecap="butt" stroke-linejoin="miter" fill-opacity="0" stroke-miterlimit="4" stroke="rgb(104,104,103)" stroke-opacity="1" stroke-width="2" d=" M3,-100 C3,-100 3,100 3,100 C3,100 -3,100 -3,100 C-3,100 -3,-100 -3,-100 C-3,-100 3,-100 3,-100z"></path></g></g><g transform="matrix(-3.131272792816162,0.25402745604515076,-0.25402745604515076,-3.131272792816162,610.1930541992188,503.62835693359375)" opacity="1" style="display: block;"><g opacity="1" transform="matrix(1,0,0,1,37.8129997253418,36.61600112915039)"><path fill="rgb(255,255,255)" fill-opacity="1" d=" M14.116999626159668,36.145999908447266 C14.116999626159668,36.145999908447266 8.145999908447266,3.4000000953674316 8.145999908447266,3.4000000953674316 C8.145999908447266,3.4000000953674316 5.789999961853027,-2.7709999084472656 5.789999961853027,-2.7709999084472656 C6.468999862670898,-3.0290000438690186 7.093999862670898,-3.4590001106262207 7.59499979019165,-4.052999973297119 C8.829999923706055,-5.514999866485596 8.956999778747559,-7.540999889373779 8.060999870300293,-9.111000061035156 C8.060999870300293,-9.111000061035156 13.907999992370605,-12.446999549865723 13.907999992370605,-12.446999549865723 C13.907999992370605,-12.446999549865723 37.34299850463867,-36.145999908447266 37.34299850463867,-36.145999908447266 C37.34299850463867,-36.145999908447266 11.402000427246094,-15.291999816894531 11.402000427246094,-15.291999816894531 C11.402000427246094,-15.291999816894531 7.0970001220703125,-10.277000427246094 7.0970001220703125,-10.277000427246094 C7.0970001220703125,-10.277000427246094 7.071000099182129,-10.300999641418457 7.071000099182129,-10.300999641418457 C5.199999809265137,-11.880999565124512 2.4040000438690186,-11.645999908447266 0.8230000138282776,-9.774999618530273 C0.6779999732971191,-9.602999687194824 0.5479999780654907,-9.423999786376953 0.4320000112056732,-9.23799991607666 C0.4320000112056732,-9.23799991607666 -5.302000045776367,-12.762999534606934 -5.302000045776367,-12.762999534606934 C-5.302000045776367,-12.762999534606934 -37.34299850463867,-21.93600082397461 -37.34299850463867,-21.93600082397461 C-37.34299850463867,-21.93600082397461 -6.591000080108643,-9.199999809265137 -6.591000080108643,-9.199999809265137 C-6.591000080108643,-9.199999809265137 -0.1289999932050705,-7.831999778747559 -0.1289999932050705,-7.831999778747559 C-0.45399999618530273,-6.2870001792907715 0.05700000002980232,-4.61899995803833 1.347000002861023,-3.5290000438690186 C2.2070000171661377,-2.802000045776367 3.263000011444092,-2.4590001106262207 4.304999828338623,-2.4820001125335693 C4.304999828338623,-2.4820001125335693 4.451000213623047,4.249000072479248 4.451000213623047,4.249000072479248 C4.451000213623047,4.249000072479248 14.116999626159668,36.145999908447266 14.116999626159668,36.145999908447266z"></path><path stroke-linecap="round" stroke-linejoin="round" fill-opacity="0" stroke="rgb(104,104,103)" stroke-opacity="1" stroke-width="0.72" d=" M14.116999626159668,36.145999908447266 C14.116999626159668,36.145999908447266 8.145999908447266,3.4000000953674316 8.145999908447266,3.4000000953674316 C8.145999908447266,3.4000000953674316 5.789999961853027,-2.7709999084472656 5.789999961853027,-2.7709999084472656 C6.468999862670898,-3.0290000438690186 7.093999862670898,-3.4590001106262207 7.59499979019165,-4.052999973297119 C8.829999923706055,-5.514999866485596 8.956999778747559,-7.540999889373779 8.060999870300293,-9.111000061035156 C8.060999870300293,-9.111000061035156 13.907999992370605,-12.446999549865723 13.907999992370605,-12.446999549865723 C13.907999992370605,-12.446999549865723 37.34299850463867,-36.145999908447266 37.34299850463867,-36.145999908447266 C37.34299850463867,-36.145999908447266 11.402000427246094,-15.291999816894531 11.402000427246094,-15.291999816894531 C11.402000427246094,-15.291999816894531 7.0970001220703125,-10.277000427246094 7.0970001220703125,-10.277000427246094 C7.0970001220703125,-10.277000427246094 7.071000099182129,-10.300999641418457 7.071000099182129,-10.300999641418457 C5.199999809265137,-11.880999565124512 2.4040000438690186,-11.645999908447266 0.8230000138282776,-9.774999618530273 C0.6779999732971191,-9.602999687194824 0.5479999780654907,-9.423999786376953 0.4320000112056732,-9.23799991607666 C0.4320000112056732,-9.23799991607666 -5.302000045776367,-12.762999534606934 -5.302000045776367,-12.762999534606934 C-5.302000045776367,-12.762999534606934 -37.34299850463867,-21.93600082397461 -37.34299850463867,-21.93600082397461 C-37.34299850463867,-21.93600082397461 -6.591000080108643,-9.199999809265137 -6.591000080108643,-9.199999809265137 C-6.591000080108643,-9.199999809265137 -0.1289999932050705,-7.831999778747559 -0.1289999932050705,-7.831999778747559 C-0.45399999618530273,-6.2870001792907715 0.05700000002980232,-4.61899995803833 1.347000002861023,-3.5290000438690186 C2.2070000171661377,-2.802000045776367 3.263000011444092,-2.4590001106262207 4.304999828338623,-2.4820001125335693 C4.304999828338623,-2.4820001125335693 4.451000213623047,4.249000072479248 4.451000213623047,4.249000072479248 C4.451000213623047,4.249000072479248 14.116999626159668,36.145999908447266 14.116999626159668,36.145999908447266z"></path></g><g opacity="1" transform="matrix(1,0,0,1,42.02199935913086,29.701000213623047)"><path stroke-linecap="butt" stroke-linejoin="miter" fill-opacity="0" stroke-miterlimit="2.61" stroke="rgb(104,104,103)" stroke-opacity="1" stroke-width="0.72" d=" M1.6100000143051147,1.3609999418258667 C2.3610000610351562,0.47200000286102295 2.25,-0.8579999804496765 1.3609999418258667,-1.6089999675750732 C0.47200000286102295,-2.3610000610351562 -0.8579999804496765,-2.249000072479248 -1.6089999675750732,-1.3600000143051147 C-2.3610000610351562,-0.47099998593330383 -2.249000072479248,0.859000027179718 -1.3600000143051147,1.6100000143051147 C-0.47099998593330383,2.3610000610351562 0.859000027179718,2.25 1.6100000143051147,1.3609999418258667z"></path></g></g></g></g></g><g clip-path="url(#__lottie_element_132)" style="display: block;" transform="matrix(0.8500000238418579,0,0,0.8500000238418579,81.99998474121094,-72.00001525878906)" opacity="1"><g mask="url(#__lottie_element_147)" style="display: block;"><g transform="matrix(3.1415600776672363,0,0,3.1415600776672363,305.3756408691406,608.0586547851562)" opacity="1"><g opacity="1" transform="matrix(1,0,0,1,6.410999774932861,6.335000038146973)"><path stroke-linecap="round" stroke-linejoin="round" fill-opacity="0" stroke="rgb(104,104,103)" stroke-opacity="1" stroke-width="0.72" d=" M-6.0289998054504395,5.974999904632568 C-6.0289998054504395,5.974999904632568 6.0289998054504395,-5.974999904632568 6.0289998054504395,-5.974999904632568"></path></g><g opacity="1" transform="matrix(1,0,0,1,21.989999771118164,6.335000038146973)"><path stroke-linecap="round" stroke-linejoin="round" fill-opacity="0" stroke="rgb(104,104,103)" stroke-opacity="1" stroke-width="0.72" d=" M-5.175000190734863,5.974999904632568 C-5.175000190734863,5.974999904632568 5.175000190734863,-5.974999904632568 5.175000190734863,-5.974999904632568"></path></g><g opacity="1" transform="matrix(1,0,0,1,37.83599853515625,6.335000038146973)"><path stroke-linecap="round" stroke-linejoin="round" fill-opacity="0" stroke="rgb(104,104,103)" stroke-opacity="1" stroke-width="0.72" d=" M-4.160999774932861,5.974999904632568 C-4.160999774932861,5.974999904632568 4.160999774932861,-5.974999904632568 4.160999774932861,-5.974999904632568"></path></g><g opacity="1" transform="matrix(1,0,0,1,53.62799835205078,6.335000038146973)"><path stroke-linecap="round" stroke-linejoin="round" fill-opacity="0" stroke="rgb(104,104,103)" stroke-opacity="1" stroke-width="0.72" d=" M-3.2009999752044678,5.974999904632568 C-3.2009999752044678,5.974999904632568 3.2009999752044678,-5.974999904632568 3.2009999752044678,-5.974999904632568"></path></g><g opacity="1" transform="matrix(1,0,0,1,69.66899871826172,6.335000038146973)"><path stroke-linecap="round" stroke-linejoin="round" fill-opacity="0" stroke="rgb(104,104,103)" stroke-opacity="1" stroke-width="0.72" d=" M-2.250999927520752,5.974999904632568 C-2.250999927520752,5.974999904632568 2.250999927520752,-5.974999904632568 2.250999927520752,-5.974999904632568"></path></g><g opacity="1" transform="matrix(1,0,0,1,85.7030029296875,6.335000038146973)"><path stroke-linecap="round" stroke-linejoin="round" fill-opacity="0" stroke="rgb(104,104,103)" stroke-opacity="1" stroke-width="0.72" d=" M-1.5010000467300415,5.974999904632568 C-1.5010000467300415,5.974999904632568 1.5010000467300415,-5.974999904632568 1.5010000467300415,-5.974999904632568"></path></g><g opacity="1" transform="matrix(1,0,0,1,102.0979995727539,6.335000038146973)"><path stroke-linecap="round" stroke-linejoin="round" fill-opacity="0" stroke="rgb(104,104,103)" stroke-opacity="1" stroke-width="0.72" d=" M-0.3889999985694885,5.974999904632568 C-0.3889999985694885,5.974999904632568 0.3889999985694885,-5.974999904632568 0.3889999985694885,-5.974999904632568"></path></g><g opacity="1" transform="matrix(1,0,0,1,118.41100311279297,6.335000038146973)"><path stroke-linecap="round" stroke-linejoin="round" fill-opacity="0" stroke="rgb(104,104,103)" stroke-opacity="1" stroke-width="0.72" d=" M0.6389999985694885,5.974999904632568 C0.6389999985694885,5.974999904632568 -0.6389999985694885,-5.974999904632568 -0.6389999985694885,-5.974999904632568"></path></g><g opacity="1" transform="matrix(1,0,0,1,135.05499267578125,6.335000038146973)"><path stroke-linecap="round" stroke-linejoin="round" fill-opacity="0" stroke="rgb(104,104,103)" stroke-opacity="1" stroke-width="0.72" d=" M1.6679999828338623,5.974999904632568 C1.6679999828338623,5.974999904632568 -1.6670000553131104,-5.974999904632568 -1.6670000553131104,-5.974999904632568"></path></g><g opacity="1" transform="matrix(1,0,0,1,151.67300415039062,6.335000038146973)"><path stroke-linecap="round" stroke-linejoin="round" fill-opacity="0" stroke="rgb(104,104,103)" stroke-opacity="1" stroke-width="0.72" d=" M2.61299991607666,5.974999904632568 C2.61299991607666,5.974999904632568 -2.61299991607666,-5.974999904632568 -2.61299991607666,-5.974999904632568"></path></g><g opacity="1" transform="matrix(1,0,0,1,168.3179931640625,6.335000038146973)"><path stroke-linecap="round" stroke-linejoin="round" fill-opacity="0" stroke="rgb(104,104,103)" stroke-opacity="1" stroke-width="0.72" d=" M3.5850000381469727,5.974999904632568 C3.5850000381469727,5.974999904632568 -3.5850000381469727,-5.974999904632568 -3.5850000381469727,-5.974999904632568"></path></g><g opacity="1" transform="matrix(1,0,0,1,184.96299743652344,6.335000038146973)"><path stroke-linecap="round" stroke-linejoin="round" fill-opacity="0" stroke="rgb(104,104,103)" stroke-opacity="1" stroke-width="0.72" d=" M4.501999855041504,5.974999904632568 C4.501999855041504,5.974999904632568 -4.501999855041504,-5.974999904632568 -4.501999855041504,-5.974999904632568"></path></g><g opacity="1" transform="matrix(1,0,0,1,0,0)"><path stroke-linecap="round" stroke-linejoin="round" fill-opacity="0" stroke="rgb(104,104,103)" stroke-opacity="1" stroke-width="0.72" d=" M12.4399995803833,0.36000001430511475 C12.4399995803833,0.36000001430511475 180.46099853515625,0.36000001430511475 180.46099853515625,0.36000001430511475"></path></g><g opacity="1" transform="matrix(1,0,0,1,0,0)"><path stroke-linecap="round" stroke-linejoin="round" fill-opacity="0" stroke="rgb(104,104,103)" stroke-opacity="1" stroke-width="0.72" d=" M189.46499633789062,12.3100004196167 C189.46499633789062,12.3100004196167 0.38199999928474426,12.3100004196167 0.38199999928474426,12.3100004196167"></path></g><g opacity="1" transform="matrix(1,0,0,1,94.98699951171875,13.123000144958496)"><path stroke-linecap="round" stroke-linejoin="round" fill-opacity="0" stroke="rgb(104,104,103)" stroke-opacity="1" stroke-width="0.72" d=" M-94.47799682617188,0.8130000233650208 C-94.47799682617188,0.8130000233650208 94.47799682617188,0.8130000233650208 94.47799682617188,0.8130000233650208 C94.47799682617188,0.8130000233650208 94.47799682617188,-0.8130000233650208 94.47799682617188,-0.8130000233650208 C94.47799682617188,-0.8130000233650208 -94.47799682617188,-0.8130000233650208 -94.47799682617188,-0.8130000233650208 C-94.47799682617188,-0.8130000233650208 -94.47799682617188,0.8130000233650208 -94.47799682617188,0.8130000233650208z"></path></g></g></g><g transform="matrix(3.1415600776672363,0,0,3.1415600776672363,263.93426513671875,650.5648193359375)" opacity="1" style="display: block;"><g opacity="1" transform="matrix(1,0,0,1,0,0)"><path stroke-linecap="round" stroke-linejoin="round" fill-opacity="0" stroke="rgb(104,104,103)" stroke-opacity="1" stroke-width="0.72" d=" M14.069000244140625,0.36000001430511475 C14.069000244140625,0.36000001430511475 203.0240020751953,0.36000001430511475 203.0240020751953,0.36000001430511475"></path></g><g opacity="1" transform="matrix(1,0,0,1,0,0)"><path stroke-linecap="round" stroke-linejoin="round" fill-opacity="0" stroke="rgb(104,104,103)" stroke-opacity="1" stroke-width="0.72" d=" M213.1490020751953,13.798999786376953 C213.1490020751953,13.798999786376953 0.5090000033378601,13.798999786376953 0.5090000033378601,13.798999786376953"></path></g></g><g transform="matrix(3.1415600776672363,0,0,3.1415600776672363,263.93426513671875,650.5648193359375)" opacity="1" style="display: block;"><g opacity="1" transform="matrix(1,0,0,1,7.289000034332275,7.079999923706055)"><path stroke-linecap="round" stroke-linejoin="round" fill-opacity="0" stroke="rgb(104,104,103)" stroke-opacity="1" stroke-width="0.72" d=" M-6.78000020980835,6.718999862670898 C-6.78000020980835,6.718999862670898 6.78000020980835,-6.718999862670898 6.78000020980835,-6.718999862670898"></path></g><g opacity="1" transform="matrix(1,0,0,1,24.809999465942383,7.079999923706055)"><path stroke-linecap="round" stroke-linejoin="round" fill-opacity="0" stroke="rgb(104,104,103)" stroke-opacity="1" stroke-width="0.72" d=" M-5.820000171661377,6.718999862670898 C-5.820000171661377,6.718999862670898 5.820000171661377,-6.718999862670898 5.820000171661377,-6.718999862670898"></path></g><g opacity="1" transform="matrix(1,0,0,1,42.630001068115234,7.079999923706055)"><path stroke-linecap="round" stroke-linejoin="round" fill-opacity="0" stroke="rgb(104,104,103)" stroke-opacity="1" stroke-width="0.72" d=" M-4.679999828338623,6.718999862670898 C-4.679999828338623,6.718999862670898 4.679999828338623,-6.718999862670898 4.679999828338623,-6.718999862670898"></path></g><g opacity="1" transform="matrix(1,0,0,1,60.38999938964844,7.079999923706055)"><path stroke-linecap="round" stroke-linejoin="round" fill-opacity="0" stroke="rgb(104,104,103)" stroke-opacity="1" stroke-width="0.72" d=" M-3.5999999046325684,6.718999862670898 C-3.5999999046325684,6.718999862670898 3.5999999046325684,-6.718999862670898 3.5999999046325684,-6.718999862670898"></path></g><g opacity="1" transform="matrix(1,0,0,1,78.4280014038086,7.079999923706055)"><path stroke-linecap="round" stroke-linejoin="round" fill-opacity="0" stroke="rgb(104,104,103)" stroke-opacity="1" stroke-width="0.72" d=" M-2.5309998989105225,6.718999862670898 C-2.5309998989105225,6.718999862670898 2.5309998989105225,-6.718999862670898 2.5309998989105225,-6.718999862670898"></path></g><g opacity="1" transform="matrix(1,0,0,1,96.45999908447266,7.079999923706055)"><path stroke-linecap="round" stroke-linejoin="round" fill-opacity="0" stroke="rgb(104,104,103)" stroke-opacity="1" stroke-width="0.72" d=" M-1.687999963760376,6.718999862670898 C-1.687999963760376,6.718999862670898 1.687999963760376,-6.718999862670898 1.687999963760376,-6.718999862670898"></path></g><g opacity="1" transform="matrix(1,0,0,1,114.89800262451172,7.079999923706055)"><path stroke-linecap="round" stroke-linejoin="round" fill-opacity="0" stroke="rgb(104,104,103)" stroke-opacity="1" stroke-width="0.72" d=" M-0.43799999356269836,6.718999862670898 C-0.43799999356269836,6.718999862670898 0.43799999356269836,-6.718999862670898 0.43799999356269836,-6.718999862670898"></path></g><g opacity="1" transform="matrix(1,0,0,1,133.2429962158203,7.079999923706055)"><path stroke-linecap="round" stroke-linejoin="round" fill-opacity="0" stroke="rgb(104,104,103)" stroke-opacity="1" stroke-width="0.72" d=" M0.718999981880188,6.718999862670898 C0.718999981880188,6.718999862670898 -0.718999981880188,-6.718999862670898 -0.718999981880188,-6.718999862670898"></path></g><g opacity="1" transform="matrix(1,0,0,1,151.96200561523438,7.079999923706055)"><path stroke-linecap="round" stroke-linejoin="round" fill-opacity="0" stroke="rgb(104,104,103)" stroke-opacity="1" stroke-width="0.72" d=" M1.875,6.718999862670898 C1.875,6.718999862670898 -1.875,-6.718999862670898 -1.875,-6.718999862670898"></path></g><g opacity="1" transform="matrix(1,0,0,1,170.6490020751953,7.079999923706055)"><path stroke-linecap="round" stroke-linejoin="round" fill-opacity="0" stroke="rgb(104,104,103)" stroke-opacity="1" stroke-width="0.72" d=" M2.937999963760376,6.718999862670898 C2.937999963760376,6.718999862670898 -2.937999963760376,-6.718999862670898 -2.937999963760376,-6.718999862670898"></path></g><g opacity="1" transform="matrix(1,0,0,1,189.3679962158203,7.079999923706055)"><path stroke-linecap="round" stroke-linejoin="round" fill-opacity="0" stroke="rgb(104,104,103)" stroke-opacity="1" stroke-width="0.72" d=" M4.0320000648498535,6.718999862670898 C4.0320000648498535,6.718999862670898 -4.031000137329102,-6.718999862670898 -4.031000137329102,-6.718999862670898"></path></g><g opacity="1" transform="matrix(1,0,0,1,208.08700561523438,7.079999923706055)"><path stroke-linecap="round" stroke-linejoin="round" fill-opacity="0" stroke="rgb(104,104,103)" stroke-opacity="1" stroke-width="0.72" d=" M5.063000202178955,6.718999862670898 C5.063000202178955,6.718999862670898 -5.063000202178955,-6.718999862670898 -5.063000202178955,-6.718999862670898"></path></g></g><g transform="matrix(1,0,0,1,600,540)" opacity="1" style="display: block;"><g opacity="1" transform="matrix(1,0,0,1,0,-6)"><path stroke-linecap="butt" stroke-linejoin="miter" fill-opacity="0" stroke-miterlimit="4" stroke="rgb(104,104,103)" stroke-opacity="1" stroke-width="2" d=" M-335,167 C-335,167 333.625,167 333.625,167"></path></g></g><g transform="matrix(1,0,0,1,600,540)" opacity="1" style="display: block;"><g opacity="1" transform="matrix(1,0,0,1,0,0)"><path stroke-linecap="butt" stroke-linejoin="miter" fill-opacity="0" stroke-miterlimit="4" stroke="rgb(104,104,103)" stroke-opacity="1" stroke-width="2" d=" M-334.75,161.5 C-334.75,161.5 -334.75,153.75 -334.75,153.75"></path></g><g opacity="1" transform="matrix(1,0,0,1,669,0)"><path stroke-linecap="butt" stroke-linejoin="miter" fill-opacity="0" stroke-miterlimit="4" stroke="rgb(104,104,103)" stroke-opacity="1" stroke-width="2" d=" M-334.75,161.5 C-334.75,161.5 -334.75,153.75 -334.75,153.75"></path></g></g></g><g clip-path="url(#__lottie_element_119)" style="display: block;" transform="matrix(0.8500000238418579,0,0,0.8500000238418579,81.99998474121094,-72.00001525878906)" opacity="1"><g clip-path="url(#__lottie_element_120)"><g transform="matrix(1,0,0,0.6224499940872192,594,622)" opacity="1" style="display: block;"><g opacity="1" transform="matrix(1,0,0,1,-1,113)"><path stroke-linecap="butt" stroke-linejoin="miter" fill-opacity="0" stroke-miterlimit="4" stroke="rgb(73,0,0)" stroke-opacity="1" stroke-width="2" d=" M0,-83 C233.45370483398438,-83 423,-45.807701110839844 423,0 C423,45.807701110839844 233.45370483398438,83 0,83 C-233.45370483398438,83 -423,45.807701110839844 -423,0 C-423,-45.807701110839844 -233.45370483398438,-83 0,-83z"></path></g></g><g transform="matrix(1,0,0,0.6224499940872192,594,622)" opacity="1" style="display: block;"><g opacity="1" transform="matrix(1,0,0,1.067039966583252,-1,117)"><path stroke-linecap="butt" stroke-linejoin="miter" fill-opacity="0" stroke-miterlimit="4" stroke="rgb(73,0,0)" stroke-opacity="1" stroke-width="2" d=" M-458.8659973144531,33.354000091552734 C-478.5150146484375,22.96299934387207 -489.25299072265625,11.72599983215332 -489.25299072265625,0 C-489.25299072265625,-52.982398986816406 -270.01873779296875,-96 0,-96 C0,-96 0,-96 0,-96 C11.734000205993652,-96 23.37299919128418,-95.91899871826172 34.9010009765625,-95.75900268554688"></path></g></g><g transform="matrix(1,0,0,0.6352800130844116,614,622)" opacity="1" style="display: block;"><g opacity="1" transform="matrix(1,0,0,1.067039966583252,-1,117)"><path stroke-linecap="butt" stroke-linejoin="miter" fill-opacity="0" stroke-miterlimit="4" stroke="rgb(73,0,0)" stroke-opacity="1" stroke-width="2" d=" M194.1959991455078,-102.677001953125 C406.5710144042969,-87.18699645996094 558.0540161132812,-47.0359992980957 558.0540161132812,0 C558.0540161132812,57.80699920654297 329.25201416015625,105.21399688720703 39.808998107910156,109.2249984741211"></path></g></g></g></g><g transform="matrix(0.7152410745620728,0,0,0.7152410745620728,625.5924072265625,399.9671936035156)" opacity="1" style="display: block;"><g opacity="1" transform="matrix(1,0,0,1,199,-175)"><path stroke-linecap="butt" stroke-linejoin="miter" fill-opacity="0" stroke-miterlimit="4" stroke="rgb(104,104,103)" stroke-opacity="1" stroke-width="2" d=" M0,-41 C22.627899169921875,-41 41,-22.627899169921875 41,0 C41,22.627899169921875 22.627899169921875,41 0,41 C-22.627899169921875,41 -41,22.627899169921875 -41,0 C-41,-22.627899169921875 -22.627899169921875,-41 0,-41z"></path></g></g><g transform="matrix(1.2408849000930786,0,0,1.2408849000930786,520.9892578125,491.9548645019531)" opacity="1" style="display: none;"><g opacity="1" transform="matrix(1,0,0,1,199,-175)"><path stroke-linecap="butt" stroke-linejoin="miter" fill-opacity="0" stroke-miterlimit="4" stroke="rgb(104,104,103)" stroke-opacity="1" stroke-width="0.006472314694332959" d=" M0,-41 C22.627899169921875,-41 41,-22.627899169921875 41,0 C41,22.627899169921875 22.627899169921875,41 0,41 C-22.627899169921875,41 -41,22.627899169921875 -41,0 C-41,-22.627899169921875 -22.627899169921875,-41 0,-41z"></path></g></g><g transform="matrix(1.2409067153930664,0,0,1.2409067153930664,520.9849243164062,491.95867919921875)" opacity="1" style="display: none;"><g opacity="1" transform="matrix(1,0,0,1,199,-175)"><path stroke-linecap="butt" stroke-linejoin="miter" fill-opacity="0" stroke-miterlimit="4" stroke="rgb(104,104,103)" stroke-opacity="1" stroke-width="0.006368367029528255" d=" M0,-41 C22.627899169921875,-41 41,-22.627899169921875 41,0 C41,22.627899169921875 22.627899169921875,41 0,41 C-22.627899169921875,41 -41,22.627899169921875 -41,0 C-41,-22.627899169921875 -22.627899169921875,-41 0,-41z"></path></g></g><g transform="matrix(1.2405869960784912,0,0,1.2405869960784912,521.0485229492188,491.9027404785156)" opacity="1" style="display: none;"><g opacity="1" transform="matrix(1,0,0,1,199,-175)"><path stroke-linecap="butt" stroke-linejoin="miter" fill-opacity="0" stroke-miterlimit="4" stroke="rgb(104,104,103)" stroke-opacity="1" stroke-width="0.007894313689611798" d=" M0,-41 C22.627899169921875,-41 41,-22.627899169921875 41,0 C41,22.627899169921875 22.627899169921875,41 0,41 C-22.627899169921875,41 -41,22.627899169921875 -41,0 C-41,-22.627899169921875 -22.627899169921875,-41 0,-41z"></path></g></g><g transform="matrix(1.240432620048523,0,0,1.240432620048523,521.0792236328125,491.8757019042969)" opacity="1" style="display: none;"><g opacity="1" transform="matrix(1,0,0,1,199,-175)"><path stroke-linecap="butt" stroke-linejoin="miter" fill-opacity="0" stroke-miterlimit="4" stroke="rgb(104,104,103)" stroke-opacity="1" stroke-width="0.008631576248008921" d=" M0,-41 C22.627899169921875,-41 41,-22.627899169921875 41,0 C41,22.627899169921875 22.627899169921875,41 0,41 C-22.627899169921875,41 -41,22.627899169921875 -41,0 C-41,-22.627899169921875 -22.627899169921875,-41 0,-41z"></path></g></g><g transform="matrix(0.9901079535484314,0,0,0.9901079535484314,570.8938598632812,448.0688781738281)" opacity="1" style="display: block;"><g opacity="1" transform="matrix(1,0,0,1,199,-175)"><path stroke-linecap="butt" stroke-linejoin="miter" fill-opacity="0" stroke-miterlimit="4" stroke="rgb(104,104,103)" stroke-opacity="1" stroke-width="0.7852773637597308" d=" M0,-41 C22.627899169921875,-41 41,-22.627899169921875 41,0 C41,22.627899169921875 22.627899169921875,41 0,41 C-22.627899169921875,41 -41,22.627899169921875 -41,0 C-41,-22.627899169921875 -22.627899169921875,-41 0,-41z"></path></g></g><g transform="matrix(0.8356302976608276,0,0,0.8356302976608276,601.6348876953125,421.0353088378906)" opacity="1" style="display: none;"><g opacity="1" transform="matrix(1,0,0,1,199,-175)"><path stroke-linecap="butt" stroke-linejoin="miter" fill-opacity="0" stroke-miterlimit="4" stroke="rgb(104,104,103)" stroke-opacity="1" stroke-width="0.006999606327002855" d=" M0,-41 C22.627899169921875,-41 41,-22.627899169921875 41,0 C41,22.627899169921875 22.627899169921875,41 0,41 C-22.627899169921875,41 -41,22.627899169921875 -41,0 C-41,-22.627899169921875 -22.627899169921875,-41 0,-41z"></path></g></g><g transform="matrix(0.8354097604751587,0,0,0.8354097604751587,601.6787719726562,420.9967041015625)" opacity="1" style="display: none;"><g opacity="1" transform="matrix(1,0,0,1,199,-175)"><path stroke-linecap="butt" stroke-linejoin="miter" fill-opacity="0" stroke-miterlimit="4" stroke="rgb(104,104,103)" stroke-opacity="1" stroke-width="0.00588843383916229" d=" M0,-41 C22.627899169921875,-41 41,-22.627899169921875 41,0 C41,22.627899169921875 22.627899169921875,41 0,41 C-22.627899169921875,41 -41,22.627899169921875 -41,0 C-41,-22.627899169921875 -22.627899169921875,-41 0,-41z"></path></g></g><g transform="matrix(0.835155189037323,0,0,0.835155189037323,601.7291259765625,420.9521484375)" opacity="1" style="display: none;"><g opacity="1" transform="matrix(1,0,0,1,199,-175)"><path stroke-linecap="butt" stroke-linejoin="miter" fill-opacity="0" stroke-miterlimit="4" stroke="rgb(104,104,103)" stroke-opacity="1" stroke-width="0.004610761348265176" d=" M0,-41 C22.627899169921875,-41 41,-22.627899169921875 41,0 C41,22.627899169921875 22.627899169921875,41 0,41 C-22.627899169921875,41 -41,22.627899169921875 -41,0 C-41,-22.627899169921875 -22.627899169921875,-41 0,-41z"></path></g></g><g transform="matrix(0.8349236249923706,0,0,0.8349236249923706,601.7752075195312,420.91162109375)" opacity="1" style="display: none;"><g opacity="1" transform="matrix(1,0,0,1,199,-175)"><path stroke-linecap="butt" stroke-linejoin="miter" fill-opacity="0" stroke-miterlimit="4" stroke="rgb(104,104,103)" stroke-opacity="1" stroke-width="0.0034441421533825986" d=" M0,-41 C22.627899169921875,-41 41,-22.627899169921875 41,0 C41,22.627899169921875 22.627899169921875,41 0,41 C-22.627899169921875,41 -41,22.627899169921875 -41,0 C-41,-22.627899169921875 -22.627899169921875,-41 0,-41z"></path></g></g><g clip-path="url(#__lottie_element_61)" style="display: none;" transform="matrix(0.8500000238418579,0,0,0.8500000238418579,81.99998474121094,-72.00001525878906)" opacity="1"><g transform="matrix(1,0,0,1,600,534)" opacity="1" style="display: none;"><g opacity="1" transform="matrix(1,0,0,1,0,0)"><path stroke-linecap="butt" stroke-linejoin="miter" fill-opacity="0" stroke-miterlimit="4" stroke="rgb(104,104,103)" stroke-opacity="1" stroke-width="0" d="M0 0"></path></g></g><g transform="matrix(1,0,0,1,600,540)" opacity="1" style="display: none;"><g opacity="1" transform="matrix(1,0,0,1,0,0)"><path stroke-linecap="butt" stroke-linejoin="miter" fill-opacity="0" stroke-miterlimit="4" stroke="rgb(104,104,103)" stroke-opacity="1" stroke-width="0" d=" M336.2409973144531,-63.42300033569336 C336.83099365234375,-63.612998962402344 337.4169921875,-63.805999755859375 338,-64"></path></g></g><g transform="matrix(1,0,0,1,600,540)" opacity="1" style="display: none;"><g opacity="1" transform="matrix(1,0,0,1,0,0)"><path stroke-linecap="butt" stroke-linejoin="miter" fill-opacity="0" stroke-miterlimit="4" stroke="rgb(104,104,103)" stroke-opacity="1" stroke-width="0" d="M0 0"></path></g></g><g transform="matrix(1,0,0,1,600,540)" opacity="1" style="display: none;"><g opacity="1" transform="matrix(1,0,0,1,0,0)"><path stroke-linecap="butt" stroke-linejoin="miter" fill-opacity="0" stroke-miterlimit="4" stroke="rgb(104,104,103)" stroke-opacity="1" stroke-width="0.009998535231168337" d=" M341.0010070800781,18.295000076293945 C341.67498779296875,18.524999618530273 342.34100341796875,18.760000228881836 343,19"></path></g></g><g transform="matrix(1,0,0,1,600,534)" opacity="1" style="display: none;"><g opacity="1" transform="matrix(1,0,0,1,0,0)"><path stroke-linecap="butt" stroke-linejoin="miter" fill-opacity="0" stroke-miterlimit="4" stroke="rgb(104,104,103)" stroke-opacity="1" stroke-width="0" d="M0 0"></path></g></g><g transform="matrix(1,0,0,1,600,540)" opacity="1" style="display: block;"><g opacity="1" transform="matrix(1,0,0,1,0,0)"><path stroke-linecap="butt" stroke-linejoin="miter" fill-opacity="0" stroke-miterlimit="4" stroke="rgb(104,104,103)" stroke-opacity="1" stroke-width="0" d=" M335.9020080566406,-63.31399917602539 C336.60699462890625,-63.540000915527344 337.3059997558594,-63.76900100708008 338,-64"></path></g></g><g transform="matrix(1,0,0,1,600,680)" opacity="1" style="display: none;"><g opacity="1" transform="matrix(1,0,0,1,0,0)"><path stroke-linecap="butt" stroke-linejoin="miter" fill-opacity="0" stroke-miterlimit="4" stroke="rgb(104,104,103)" stroke-opacity="1" stroke-width="0.011153764479493677" d="M0 0"></path></g></g><g transform="matrix(1,0,0,1,600,400)" opacity="1" style="display: none;"><g opacity="1" transform="matrix(1,0,0,1,0,0)"><path stroke-linecap="butt" stroke-linejoin="miter" fill-opacity="0" stroke-miterlimit="4" stroke="rgb(104,104,103)" stroke-opacity="1" stroke-width="0" d=" M340.8529968261719,18.243999481201172 C341.5769958496094,18.490999221801758 342.2929992675781,18.743000030517578 343,19"></path></g></g></g><g clip-path="url(#__lottie_element_33)" style="display: block;" transform="matrix(0.8500000238418579,0,0,0.8500000238418579,81.99998474121094,-72.00001525878906)" opacity="1"><g transform="matrix(1,0,0,1,600,534)" opacity="1" style="display: block;"><g opacity="1" transform="matrix(1,0,0,1,0,0)"><path stroke-linecap="butt" stroke-linejoin="miter" fill-opacity="0" stroke-miterlimit="4" stroke="rgb(104,104,103)" stroke-opacity="1" stroke-width="1" d=" M-78.13099670410156,6.10099983215332 C-55.055999755859375,10.854999542236328 -32.99599838256836,13.154000282287598 -5,11 C15.35099983215332,9.4350004196167 38.8380012512207,6.006999969482422 62.97600173950195,1.9129999876022339"></path></g></g><g transform="matrix(1,0,0,1,600,540)" opacity="1" style="display: block;"><g opacity="1" transform="matrix(1,0,0,1,0,0)"><path stroke-linecap="butt" stroke-linejoin="miter" fill-opacity="0" stroke-miterlimit="4" stroke="rgb(104,104,103)" stroke-opacity="1" stroke-width="1" d=" M-157.1699981689453,-47.92900085449219 C-151.08999633789062,-48.35900115966797 -145.33599853515625,-49.0359992980957 -140,-50 C-97.32499694824219,-57.70500183105469 -63.43299865722656,-72.08499908447266 -31.45199966430664,-82.52100372314453"></path></g></g><g transform="matrix(1,0,0,1,600,540)" opacity="1" style="display: block;"><g opacity="1" transform="matrix(1,0,0,1,0,0)"><path stroke-linecap="butt" stroke-linejoin="miter" fill-opacity="0" stroke-miterlimit="4" stroke="rgb(104,104,103)" stroke-opacity="1" stroke-width="0.8357700857435129" d=" M-196.36700439453125,-140.77099609375 C-184.24400329589844,-146.17599487304688 -164.6750030517578,-148.07400512695312 -135,-142.5 C-103.4219970703125,-136.5679931640625 -73.66899871826172,-130.69700622558594 -45.891998291015625,-126.2040023803711"></path></g></g><g transform="matrix(1,0,0,1,600,540)" opacity="1" style="display: block;"><g opacity="1" transform="matrix(1,0,0,1,0,0)"><path stroke-linecap="butt" stroke-linejoin="miter" fill-opacity="0" stroke-miterlimit="4" stroke="rgb(104,104,103)" stroke-opacity="1" stroke-width="1" d=" M99.09400177001953,41.20600128173828 C148.8090057373047,41.59199905395508 198.8459930419922,36.3849983215332 197,13 C195.74099731445312,-2.944999933242798 186.031005859375,-9.734999656677246 175.99600219726562,-10.397000312805176"></path></g></g><g transform="matrix(1,0,0,1,600,534)" opacity="1" style="display: block;"><g opacity="1" transform="matrix(1,0,0,1,0,0)"><path stroke-linecap="butt" stroke-linejoin="miter" fill-opacity="0" stroke-miterlimit="4" stroke="rgb(104,104,103)" stroke-opacity="1" stroke-width="0.31807612110185784" d=" M-406,-1 C-406,-1 -379.5419921875,-8.916999816894531 -342.4110107421875,-15.810999870300293"></path></g></g><g transform="matrix(1,0,0,1,600,540)" opacity="1" style="display: block;"><g opacity="1" transform="matrix(1,0,0,1,0,0)"><path stroke-linecap="butt" stroke-linejoin="miter" fill-opacity="0" stroke-miterlimit="4" stroke="rgb(104,104,103)" stroke-opacity="1" stroke-width="0" d="M0 0"></path></g></g><g transform="matrix(1,0,0,1,600,680)" opacity="1" style="display: block;"><g opacity="1" transform="matrix(1,0,0,1,0,0)"><path stroke-linecap="butt" stroke-linejoin="miter" fill-opacity="0" stroke-miterlimit="4" stroke="rgb(104,104,103)" stroke-opacity="1" stroke-width="0.164229967255704" d=" M-399,-110 C-399,-110 -384.60101318359375,-112.78099822998047 -363.281005859375,-116.30799865722656"></path></g></g><g transform="matrix(1,0,0,1,600,400)" opacity="1" style="display: block;"><g opacity="1" transform="matrix(1,0,0,1,0,0)"><path stroke-linecap="butt" stroke-linejoin="miter" fill-opacity="0" stroke-miterlimit="4" stroke="rgb(104,104,103)" stroke-opacity="1" stroke-width="0.3949991980249348" d=" M-299,25 C-299,25 -231.00100708007812,5.135000228881836 -170.468994140625,6.14300012588501"></path></g></g></g><g clip-path="url(#__lottie_element_5)" style="display: none;" transform="matrix(0.8500000238418579,0,0,0.8500000238418579,81.99998474121094,-72.00001525878906)" opacity="1"><g transform="matrix(1,0,0,1,600,534)" opacity="1" style="display: none;"><g opacity="1" transform="matrix(1,0,0,1,0,0)"><path stroke-linecap="butt" stroke-linejoin="miter" fill-opacity="0" stroke-miterlimit="4" stroke="rgb(104,104,103)" stroke-opacity="1" stroke-width="0.006845411573699231" d=" M-406,-1 C-406,-1 -406,-1 -406,-1"></path></g></g><g transform="matrix(1,0,0,1,600,540)" opacity="1" style="display: none;"><g opacity="1" transform="matrix(1,0,0,1,0,0)"><path stroke-linecap="butt" stroke-linejoin="miter" fill-opacity="0" stroke-miterlimit="4" stroke="rgb(104,104,103)" stroke-opacity="1" stroke-width="0" d="M0 0"></path></g></g><g transform="matrix(1,0,0,1,600,540)" opacity="1" style="display: none;"><g opacity="1" transform="matrix(1,0,0,1,0,0)"><path stroke-linecap="butt" stroke-linejoin="miter" fill-opacity="0" stroke-miterlimit="4" stroke="rgb(104,104,103)" stroke-opacity="1" stroke-width="0" d="M0 0"></path></g></g><g transform="matrix(1,0,0,1,600,540)" opacity="1" style="display: block;"><g opacity="1" transform="matrix(1,0,0,1,0,0)"><path stroke-linecap="butt" stroke-linejoin="miter" fill-opacity="0" stroke-miterlimit="4" stroke="rgb(104,104,103)" stroke-opacity="1" stroke-width="0" d=" M-299,25 C-299,25 -298.5069885253906,24.856000900268555 -297.5660095214844,24.593000411987305"></path></g></g><g transform="matrix(1,0,0,1,600,534)" opacity="1" style="display: none;"><g opacity="1" transform="matrix(1,0,0,1,0,0)"><path stroke-linecap="butt" stroke-linejoin="miter" fill-opacity="0" stroke-miterlimit="4" stroke="rgb(104,104,103)" stroke-opacity="1" stroke-width="0.0051528775835265606" d=" M-406,-1 C-406,-1 -406,-1 -406,-1"></path></g></g><g transform="matrix(1,0,0,1,600,540)" opacity="1" style="display: none;"><g opacity="1" transform="matrix(1,0,0,1,0,0)"><path stroke-linecap="butt" stroke-linejoin="miter" fill-opacity="0" stroke-miterlimit="4" stroke="rgb(104,104,103)" stroke-opacity="1" stroke-width="0" d="M0 0"></path></g></g><g transform="matrix(1,0,0,1,600,680)" opacity="1" style="display: none;"><g opacity="1" transform="matrix(1,0,0,1,0,0)"><path stroke-linecap="butt" stroke-linejoin="miter" fill-opacity="0" stroke-miterlimit="4" stroke="rgb(104,104,103)" stroke-opacity="1" stroke-width="0" d="M0 0"></path></g></g><g transform="matrix(1,0,0,1,600,400)" opacity="1" style="display: none;"><g opacity="1" transform="matrix(1,0,0,1,0,0)"><path stroke-linecap="butt" stroke-linejoin="miter" fill-opacity="0" stroke-miterlimit="4" stroke="rgb(104,104,103)" stroke-opacity="1" stroke-width="0" d=" M-299,25 C-299,25 -298.6390075683594,24.895000457763672 -297.9460144042969,24.698999404907227"></path></g></g></g></g></svg>