<svg xmlns="http://www.w3.org/2000/svg" viewBox="0 0 1200 694" width="1200" height="694" preserveAspectRatio="xMidYMid meet" style="width: 100%; height: 100%; transform: translate3d(0px, 0px, 0px);"><defs><clipPath id="__lottie_element_2"><rect width="1200" height="694" x="0" y="0"></rect></clipPath><clipPath id="__lottie_element_5"><path d="M0,0 L1200,0 L1200,1080 L0,1080z"></path></clipPath><clipPath id="__lottie_element_33"><path d="M0,0 L1200,0 L1200,1080 L0,1080z"></path></clipPath><clipPath id="__lottie_element_61"><path d="M0,0 L1200,0 L1200,1080 L0,1080z"></path></clipPath><clipPath id="__lottie_element_119"><path d="M0,0 L1200,0 L1200,1080 L0,1080z"></path></clipPath><clipPath id="__lottie_element_120"><path fill="#ffffff" clip-rule="nonzero" d=" M1094.1180419921875,482.3529968261719 C1094.1180419921875,482.3529968261719 908.2360229492188,628.2349853515625 908.2360229492188,628.2349853515625 C908.2360229492188,628.2349853515625 955.2940063476562,681.176025390625 955.2940063476562,681.176025390625 C955.2940063476562,681.176025390625 257.6470031738281,671.7650146484375 257.6470031738281,671.7650146484375 C257.6470031738281,671.7650146484375 322.3529968261719,610.5880126953125 322.3529968261719,610.5880126953125 C322.3529968261719,610.5880126953125 61.17599868774414,497.6470031738281 61.17599868774414,497.6470031738281 C61.17599868774414,497.6470031738281 -89.41200256347656,594.1179809570312 -89.41200256347656,594.1179809570312 C-89.41200256347656,594.1179809570312 -92.94100189208984,884.7059936523438 -92.94100189208984,884.7059936523438 C-92.94100189208984,884.7059936523438 1297.64697265625,865.8820190429688 1297.64697265625,865.8820190429688 C1297.64697265625,865.8820190429688 1300,594.1179809570312 1300,594.1179809570312 C1300,594.1179809570312 1094.1180419921875,482.3529968261719 1094.1180419921875,482.3529968261719" fill-opacity="1"></path></clipPath><clipPath id="__lottie_element_132"><path d="M0,0 L1200,0 L1200,1080 L0,1080z"></path></clipPath><mask id="__lottie_element_147" mask-type="alpha"><g transform="matrix(1,0,0,1,600,540)" opacity="1" style="display: block;"><g opacity="1" transform="matrix(1,0,0,1,-2.5,68.5)"><path fill="rgb(59,255,0)" fill-opacity="1" d=" M374.5,-43 C374.5,-43 374.5,43 374.5,43 C374.5,43 -374.5,43 -374.5,43 C-374.5,43 -374.5,-43 -374.5,-43 C-374.5,-43 374.5,-43 374.5,-43z"></path></g></g></mask><clipPath id="__lottie_element_154"><path d="M0,0 L1200,0 L1200,694 L0,694z"></path></clipPath><clipPath id="__lottie_element_155"><path fill="#ffffff" clip-rule="nonzero" d=" M128,22 C128,22 261,579 261,579 C261,579 341.5,477.5 341.5,477.5 C341.5,477.5 374.5,446 374.5,446 C374.5,446 823,446 823,446 C823,446 968,366 968,366 C968,366 926,30 926,30 C926,30 128,22 128,22" fill-opacity="1"></path></clipPath><clipPath id="__lottie_element_158"><path d="M0,0 L1200,0 L1200,1080 L0,1080z"></path></clipPath><clipPath id="__lottie_element_168"><path d="M0,0 L1200,0 L1200,1080 L0,1080z"></path></clipPath><clipPath id="__lottie_element_178"><path d="M0,0 L1200,0 L1200,1080 L0,1080z"></path></clipPath></defs><g clip-path="url(#__lottie_element_2)"><g clip-path="url(#__lottie_element_154)" transform="matrix(1,0,0,1,0,0)" opacity="1" style="display: block;"><g clip-path="url(#__lottie_element_155)"><g clip-path="url(#__lottie_element_178)" style="display: block;" transform="matrix(0.9520000219345093,0,0,0.9520000219345093,66.70001220703125,-154.280029296875)" opacity="1"><g transform="matrix(1,0,0,1,600,540)" opacity="1" style="display: block;"><g opacity="1" transform="matrix(1,0,0,1,-129,-5.5)"><path stroke-linecap="butt" stroke-linejoin="miter" fill-opacity="0" stroke-miterlimit="4" stroke="rgb(104,104,103)" stroke-opacity="1" stroke-width="2" d=" M3,-100 C3,-100 3,100 3,100 C3,100 -3,100 -3,100 C-3,100 -3,-100 -3,-100 C-3,-100 3,-100 3,-100z"></path></g></g><g transform="matrix(1.5283993482589722,2.7447030544281006,-2.7447030544281006,1.5283993482589722,487.9188232421875,260.62005615234375)" opacity="1" style="display: block;"><g opacity="1" transform="matrix(1,0,0,1,37.8129997253418,36.61600112915039)"><path fill="rgb(255,255,255)" fill-opacity="1" d=" M14.116999626159668,36.145999908447266 C14.116999626159668,36.145999908447266 8.145999908447266,3.4000000953674316 8.145999908447266,3.4000000953674316 C8.145999908447266,3.4000000953674316 5.789999961853027,-2.7709999084472656 5.789999961853027,-2.7709999084472656 C6.468999862670898,-3.0290000438690186 7.093999862670898,-3.4590001106262207 7.59499979019165,-4.052999973297119 C8.829999923706055,-5.514999866485596 8.956999778747559,-7.540999889373779 8.060999870300293,-9.111000061035156 C8.060999870300293,-9.111000061035156 13.907999992370605,-12.446999549865723 13.907999992370605,-12.446999549865723 C13.907999992370605,-12.446999549865723 37.34299850463867,-36.145999908447266 37.34299850463867,-36.145999908447266 C37.34299850463867,-36.145999908447266 11.402000427246094,-15.291999816894531 11.402000427246094,-15.291999816894531 C11.402000427246094,-15.291999816894531 7.0970001220703125,-10.277000427246094 7.0970001220703125,-10.277000427246094 C7.0970001220703125,-10.277000427246094 7.071000099182129,-10.300999641418457 7.071000099182129,-10.300999641418457 C5.199999809265137,-11.880999565124512 2.4040000438690186,-11.645999908447266 0.8230000138282776,-9.774999618530273 C0.6779999732971191,-9.602999687194824 0.5479999780654907,-9.423999786376953 0.4320000112056732,-9.23799991607666 C0.4320000112056732,-9.23799991607666 -5.302000045776367,-12.762999534606934 -5.302000045776367,-12.762999534606934 C-5.302000045776367,-12.762999534606934 -37.34299850463867,-21.93600082397461 -37.34299850463867,-21.93600082397461 C-37.34299850463867,-21.93600082397461 -6.591000080108643,-9.199999809265137 -6.591000080108643,-9.199999809265137 C-6.591000080108643,-9.199999809265137 -0.1289999932050705,-7.831999778747559 -0.1289999932050705,-7.831999778747559 C-0.45399999618530273,-6.2870001792907715 0.05700000002980232,-4.61899995803833 1.347000002861023,-3.5290000438690186 C2.2070000171661377,-2.802000045776367 3.263000011444092,-2.4590001106262207 4.304999828338623,-2.4820001125335693 C4.304999828338623,-2.4820001125335693 4.451000213623047,4.249000072479248 4.451000213623047,4.249000072479248 C4.451000213623047,4.249000072479248 14.116999626159668,36.145999908447266 14.116999626159668,36.145999908447266z"></path><path stroke-linecap="round" stroke-linejoin="round" fill-opacity="0" stroke="rgb(104,104,103)" stroke-opacity="1" stroke-width="0.72" d=" M14.116999626159668,36.145999908447266 C14.116999626159668,36.145999908447266 8.145999908447266,3.4000000953674316 8.145999908447266,3.4000000953674316 C8.145999908447266,3.4000000953674316 5.789999961853027,-2.7709999084472656 5.789999961853027,-2.7709999084472656 C6.468999862670898,-3.0290000438690186 7.093999862670898,-3.4590001106262207 7.59499979019165,-4.052999973297119 C8.829999923706055,-5.514999866485596 8.956999778747559,-7.540999889373779 8.060999870300293,-9.111000061035156 C8.060999870300293,-9.111000061035156 13.907999992370605,-12.446999549865723 13.907999992370605,-12.446999549865723 C13.907999992370605,-12.446999549865723 37.34299850463867,-36.145999908447266 37.34299850463867,-36.145999908447266 C37.34299850463867,-36.145999908447266 11.402000427246094,-15.291999816894531 11.402000427246094,-15.291999816894531 C11.402000427246094,-15.291999816894531 7.0970001220703125,-10.277000427246094 7.0970001220703125,-10.277000427246094 C7.0970001220703125,-10.277000427246094 7.071000099182129,-10.300999641418457 7.071000099182129,-10.300999641418457 C5.199999809265137,-11.880999565124512 2.4040000438690186,-11.645999908447266 0.8230000138282776,-9.774999618530273 C0.6779999732971191,-9.602999687194824 0.5479999780654907,-9.423999786376953 0.4320000112056732,-9.23799991607666 C0.4320000112056732,-9.23799991607666 -5.302000045776367,-12.762999534606934 -5.302000045776367,-12.762999534606934 C-5.302000045776367,-12.762999534606934 -37.34299850463867,-21.93600082397461 -37.34299850463867,-21.93600082397461 C-37.34299850463867,-21.93600082397461 -6.591000080108643,-9.199999809265137 -6.591000080108643,-9.199999809265137 C-6.591000080108643,-9.199999809265137 -0.1289999932050705,-7.831999778747559 -0.1289999932050705,-7.831999778747559 C-0.45399999618530273,-6.2870001792907715 0.05700000002980232,-4.61899995803833 1.347000002861023,-3.5290000438690186 C2.2070000171661377,-2.802000045776367 3.263000011444092,-2.4590001106262207 4.304999828338623,-2.4820001125335693 C4.304999828338623,-2.4820001125335693 4.451000213623047,4.249000072479248 4.451000213623047,4.249000072479248 C4.451000213623047,4.249000072479248 14.116999626159668,36.145999908447266 14.116999626159668,36.145999908447266z"></path></g><g opacity="1" transform="matrix(1,0,0,1,42.02199935913086,29.701000213623047)"><path stroke-linecap="butt" stroke-linejoin="miter" fill-opacity="0" stroke-miterlimit="2.61" stroke="rgb(104,104,103)" stroke-opacity="1" stroke-width="0.72" d=" M1.6100000143051147,1.3609999418258667 C2.3610000610351562,0.47200000286102295 2.25,-0.8579999804496765 1.3609999418258667,-1.6089999675750732 C0.47200000286102295,-2.3610000610351562 -0.8579999804496765,-2.249000072479248 -1.6089999675750732,-1.3600000143051147 C-2.3610000610351562,-0.47099998593330383 -2.249000072479248,0.859000027179718 -1.3600000143051147,1.6100000143051147 C-0.47099998593330383,2.3610000610351562 0.859000027179718,2.25 1.6100000143051147,1.3609999418258667z"></path></g></g></g></g></g></svg>