<svg width="17" height="16" viewBox="0 0 17 16" fill="none" xmlns="http://www.w3.org/2000/svg">
<path d="M0.807701 4.29922L3.32642 0.940933C3.44054 0.78877 3.61964 0.699219 3.80984 0.699219H12.2056C12.3958 0.699219 12.5749 0.78877 12.689 0.940933L15.2077 4.29922M0.807701 4.29922H15.2077M0.807701 4.29922C0.807701 4.29922 0.0362723 7.89922 2.6077 7.88474M15.2077 4.29922C15.2077 4.29922 15.9791 7.89922 13.4077 7.88474M2.6077 7.88474C5.17913 7.89922 5.43627 4.29922 5.43627 4.29922C5.43627 4.29922 5.43627 7.89922 8.0077 7.89922C10.5791 7.89922 10.5791 4.29922 10.5791 4.29922C10.5791 4.29922 10.8363 7.89922 13.4077 7.88474M2.6077 7.88474V14.4949C2.6077 14.8287 2.87825 15.0992 3.21199 15.0992H6.2077M13.4077 7.88474V14.4949C13.4077 14.8287 13.1372 15.0992 12.8034 15.0992H9.67913M6.2077 15.0992V11.2035C6.2077 10.8698 6.47825 10.5992 6.81199 10.5992H9.07484C9.40858 10.5992 9.67913 10.8698 9.67913 11.2035V15.0992M6.2077 15.0992H9.67913" stroke="#707070" stroke-width="1.4" stroke-linecap="round"/>
</svg>
