<svg width="16" height="13" viewBox="0 0 16 13" fill="none" xmlns="http://www.w3.org/2000/svg">
<path d="M7.89922 2.49922V1.59922C7.89922 1.10216 7.49627 0.699219 6.99922 0.699219H1.59922C1.10216 0.699219 0.699219 1.10216 0.699219 1.59922V9.69922C0.699219 10.1963 1.10216 10.5992 1.59922 10.5992H2.75636M7.89922 2.49922H11.1264C11.3651 2.49922 11.594 2.59404 11.7628 2.76282L15.0992 6.09922M7.89922 2.49922V6.09922M15.0992 6.09922V9.69922C15.0992 10.1963 14.6963 10.5992 14.1992 10.5992H13.0421M15.0992 6.09922H7.89922M7.89922 10.5992V6.09922M7.89922 10.5992H5.84208M7.89922 10.5992H9.95636M5.84208 10.5992C5.84208 11.4513 5.15131 12.1421 4.29922 12.1421C3.44712 12.1421 2.75636 11.4513 2.75636 10.5992M5.84208 10.5992C5.84208 9.74712 5.15131 9.05636 4.29922 9.05636C3.44712 9.05636 2.75636 9.74712 2.75636 10.5992M13.0421 10.5992C13.0421 11.4513 12.3513 12.1421 11.4992 12.1421C10.6471 12.1421 9.95636 11.4513 9.95636 10.5992M13.0421 10.5992C13.0421 9.74712 12.3513 9.05636 11.4992 9.05636C10.6471 9.05636 9.95636 9.74712 9.95636 10.5992" stroke="#4CAF50" stroke-width="1.4"/>
</svg>
