<svg xmlns="http://www.w3.org/2000/svg" viewBox="0 0 1200 694" width="1200" height="694" preserveAspectRatio="xMidYMid meet"><defs><style>
@keyframes rotate {
  from { transform: rotate(0deg); }
  to { transform: rotate(360deg); }
}
.turbine { animation: rotate 4s linear infinite; transform-origin: 682.9px 424px; }
</style></defs><g><rect width="1200" height="694" fill="#035925"/><g class="turbine"><g transform="matrix(1.5283993482589722,2.7447030544281006,-2.7447030544281006,1.5283993482589722,487.9188232421875,260.62005615234375)" opacity="1"><path fill="rgb(255,255,255)" fill-opacity="1" d=" M14.116999626159668,36.145999908447266 C14.116999626159668,36.145999908447266 8.145999908447266,3.4000000953674316 8.145999908447266,3.4000000953674316 C8.145999908447266,3.4000000953674316 5.789999961853027,-2.7709999084472656 5.789999961853027,-2.7709999084472656 C6.468999862670898,-3.0290000438690186 7.093999862670898,-3.4590001106262207 7.59499979019165,-4.052999973297119 C8.829999923706055,-5.514999866485596 8.956999778747559,-7.540999889373779 8.060999870300293,-9.111000061035156 C8.060999870300293,-9.111000061035156 13.907999992370605,-12.446999549865723 13.907999992370605,-12.446999549865723 C13.907999992370605,-12.446999549865723 37.34299850463867,-36.145999908447266 37.34299850463867,-36.145999908447266 C37.34299850463867,-36.145999908447266 11.402000427246094,-15.291999816894531 11.402000427246094,-15.291999816894531 C11.402000427246094,-15.291999816894531 7.0970001220703125,-10.277000427246094 7.0970001220703125,-10.277000427246094 C7.0970001220703125,-10.277000427246094 7.071000099182129,-10.300999641418457 7.071000099182129,-10.300999641418457 C5.199999809265137,-11.880999565124512 2.4040000438690186,-11.645999908447266 0.8230000138282776,-9.774999618530273 C0.6779999732971191,-9.602999687194824 0.5479999780654907,-9.423999786376953 0.4320000112056732,-9.23799991607666 C0.4320000112056732,-9.23799991607666 -5.302000045776367,-12.762999534606934 -5.302000045776367,-12.762999534606934 C-5.302000045776367,-12.762999534606934 -37.34299850463867,-21.93600082397461 -37.34299850463867,-21.93600082397461 C-37.34299850463867,-21.93600082397461 -6.591000080108643,-9.199999809265137 -6.591000080108643,-9.199999809265137 C-6.591000080108643,-9.199999809265137 -0.1289999932050705,-7.831999778747559 -0.1289999932050705,-7.831999778747559 C-0.45399999618530273,-6.2870001792907715 0.05700000002980232,-4.61899995803833 1.347000002861023,-3.5290000438690186 C2.2070000171661377,-2.802000045776367 3.263000011444092,-2.4590001106262207 4.304999828338623,-2.4820001125335693 C4.304999828338623,-2.4820001125335693 4.451000213623047,4.249000072479248 4.451000213623047,4.249000072479248 C4.451000213623047,4.249000072479248 14.116999626159668,36.145999908447266 14.116999626159668,36.145999908447266z"></path><path stroke-linecap="round" stroke-linejoin="round" fill-opacity="0" stroke="rgb(104,104,103)" stroke-opacity="1" stroke-width="0.72" d=" M14.116999626159668,36.145999908447266 C14.116999626159668,36.145999908447266 8.145999908447266,3.4000000953674316 8.145999908447266,3.4000000953674316 C8.145999908447266,3.4000000953674316 5.789999961853027,-2.7709999084472656 5.789999961853027,-2.7709999084472656 C6.468999862670898,-3.0290000438690186 7.093999862670898,-3.4590001106262207 7.59499979019165,-4.052999973297119 C8.829999923706055,-5.514999866485596 8.956999778747559,-7.540999889373779 8.060999870300293,-9.111000061035156 C8.060999870300293,-9.111000061035156 13.907999992370605,-12.446999549865723 13.907999992370605,-12.446999549865723 C13.907999992370605,-12.446999549865723 37.34299850463867,-36.145999908447266 37.34299850463867,-36.145999908447266 C37.34299850463867,-36.145999908447266 11.402000427246094,-15.291999816894531 11.402000427246094,-15.291999816894531 C11.402000427246094,-15.291999816894531 7.0970001220703125,-10.277000427246094 7.0970001220703125,-10.277000427246094 C7.0970001220703125,-10.277000427246094 7.071000099182129,-10.300999641418457 7.071000099182129,-10.300999641418457 C5.199999809265137,-11.880999565124512 2.4040000438690186,-11.645999908447266 0.8230000138282776,-9.774999618530273 C0.6779999732971191,-9.602999687194824 0.5479999780654907,-9.423999786376953 0.4320000112056732,-9.23799991607666 C0.4320000112056732,-9.23799991607666 -5.302000045776367,-12.762999534606934 -5.302000045776367,-12.762999534606934 C-5.302000045776367,-12.762999534606934 -37.34299850463867,-21.93600082397461 -37.34299850463867,-21.93600082397461 C-37.34299850463867,-21.93600082397461 -6.591000080108643,-9.199999809265137 -6.591000080108643,-9.199999809265137 C-6.591000080108643,-9.199999809265137 -0.1289999932050705,-7.831999778747559 -0.1289999932050705,-7.831999778747559 C-0.45399999618530273,-6.2870001792907715 0.05700000002980232,-4.61899995803833 1.347000002861023,-3.5290000438690186 C2.2070000171661377,-2.802000045776367 3.263000011444092,-2.4590001106262207 4.304999828338623,-2.4820001125335693 C4.304999828338623,-2.4820001125335693 4.451000213623047,4.249000072479248 4.451000213623047,4.249000072479248 C4.451000213623047,4.249000072479248 14.116999626159668,36.145999908447266 14.116999626159668,36.145999908447266z"></path></g><circle cx="682.9" cy="424" r="40" fill="rgb(255,255,255)" opacity="0.9"/><circle cx="682.9" cy="424" r="25" fill="#035925"/></g></g></svg>